<svg width="19" height="19" viewBox="0 0 19 19" fill="none" xmlns="http://www.w3.org/2000/svg">
<g opacity="0.9">
<path d="M9.49638 1.66757L10.8678 6.08147C11.0125 6.55029 11.2958 6.95895 11.6769 7.24856C12.058 7.53817 12.5172 7.69379 12.9882 7.69299H17.4252L13.8354 10.4206C13.4539 10.7094 13.1699 11.1175 13.0244 11.586C12.8788 12.0545 12.8792 12.5592 13.0255 13.0274L14.3969 17.4407L10.807 14.7131C10.4261 14.4238 9.96743 14.268 9.49667 14.268C9.02591 14.268 8.56723 14.4238 8.18632 14.7131L4.59587 17.4407L5.96725 13.0274C6.11353 12.5592 6.11396 12.0545 5.96842 11.586C5.82288 11.1175 5.53891 10.7094 5.15742 10.4206L1.56756 7.69299H6.00512C6.47609 7.69366 6.93513 7.53798 7.31609 7.24838C7.69705 6.95877 7.98028 6.55019 8.125 6.08147L9.49638 1.66757ZM9.49638 9.53677e-05C9.2788 -0.00296341 9.06613 0.0676302 8.89006 0.201342C8.71399 0.335054 8.58396 0.524712 8.5194 0.742029L6.9815 5.6929C6.91459 5.90864 6.78408 6.09669 6.60868 6.23008C6.43328 6.36348 6.22199 6.43538 6.00512 6.43547H1.02766C0.810717 6.43529 0.599305 6.50697 0.423727 6.64022C0.24815 6.77348 0.117452 6.96147 0.0503529 7.17723C-0.0167458 7.39298 -0.016786 7.62542 0.0502428 7.8412C0.117272 8.05698 0.247899 8.24501 0.423434 8.37833L4.45158 11.4379C4.62713 11.5712 4.75781 11.7592 4.82489 11.9749C4.89196 12.1906 4.89199 12.4231 4.82496 12.6388L3.28644 17.5897C3.23625 17.7515 3.22336 17.9234 3.24886 18.0913C3.27436 18.2593 3.33754 18.4185 3.43318 18.5561C3.52882 18.6936 3.65422 18.8056 3.79914 18.8827C3.94407 18.9599 4.10439 19.0001 4.26701 19C4.48375 18.9992 4.69452 18.9256 4.86822 18.79L8.89637 15.7304C9.07186 15.5972 9.28313 15.5255 9.49998 15.5255C9.71682 15.5255 9.92813 15.5972 10.1036 15.7304L14.1318 18.79C14.3055 18.9256 14.5162 18.9992 14.733 19C14.8956 19.0001 15.0559 18.9599 15.2008 18.8827C15.3458 18.8056 15.4712 18.6936 15.5668 18.5561C15.6624 18.4185 15.7256 18.2593 15.7511 18.0913C15.7766 17.9234 15.7637 17.7515 15.7135 17.5897L14.175 12.6388C14.1081 12.4231 14.1082 12.1907 14.1752 11.9749C14.2423 11.7592 14.3729 11.5712 14.5484 11.4379L18.5766 8.37833C18.7519 8.24517 18.8824 8.05742 18.9495 7.84195C19.0166 7.62647 19.0168 7.39433 18.9501 7.17872C18.8834 6.96312 18.7532 6.77512 18.5781 6.64161C18.403 6.50811 18.192 6.43595 17.9753 6.43547H12.9979C12.7809 6.43541 12.5696 6.36354 12.3941 6.23015C12.2186 6.09676 12.0879 5.90869 12.0209 5.6929L10.483 0.742029C10.4184 0.524712 10.2884 0.335054 10.1123 0.201342C9.93628 0.0676302 9.72357 -0.00296341 9.50599 9.53677e-05H9.49638Z" fill="#F8F7F7"/>
</g>
</svg>
